<svg xmlns="http://www.w3.org/2000/svg" xmlns:xlink="http://www.w3.org/1999/xlink" version="1.1" x="0px" y="0px" viewBox="0 0 100 125" style="enable-background:new 0 0 100 100;" xml:space="preserve"><path d="M74.8,29.5c0,0,0-0.1-0.1-0.1c-0.1-0.2-0.1-0.3-0.2-0.4c0,0-0.1-0.1-0.1-0.2c-0.1-0.1-0.2-0.3-0.3-0.4  c0,0,0-0.1-0.1-0.1l-19-19c0,0-0.1,0-0.1-0.1c-0.1-0.1-0.3-0.2-0.4-0.3c-0.1,0-0.1-0.1-0.2-0.1c-0.1-0.1-0.3-0.2-0.4-0.2  c0,0-0.1,0-0.1-0.1c-0.4-0.2-0.8-0.3-1.3-0.3H15.8c-2,0-3.6,1.6-3.6,3.6v74.2c0,2,1.6,3.6,3.6,3.6h55.6c2,0,3.6-1.6,3.6-3.6v-7.6  c0-0.4-0.3-0.6-0.7-0.5c-1,0.2-2,0.3-3.1,0.3c-1,0-1.9-0.1-2.8-0.2c-0.3-0.1-0.6,0.2-0.6,0.5v2.8c0,0.6-0.5,1.2-1.2,1.2H20.6  c-0.6,0-1.2-0.5-1.2-1.2V16.7c0-0.6,0.5-1.2,1.2-1.2h28.3v15.4c0,2,1.6,3.6,3.6,3.6h15.4v6.5c0,0.3,0.3,0.6,0.6,0.5  c0.9-0.1,1.9-0.2,2.8-0.2c1,0,2.1,0.1,3.1,0.3c0.3,0.1,0.7-0.2,0.7-0.5V30.8C75.1,30.4,75,29.9,74.8,29.5z"/><path d="M71.3,44.8c-8.3,0-15,6.7-15,15s6.7,15,15,15s15-6.7,15-15S79.6,44.8,71.3,44.8z M74.7,60.2l4.8,4.8  c0.2,0.2,0.2,0.5,0,0.7L77.3,68c-0.2,0.2-0.5,0.2-0.7,0l-4.8-4.8c-0.2-0.2-0.5-0.2-0.7,0L66.3,68c-0.2,0.2-0.5,0.2-0.7,0l-2.2-2.2  c-0.2-0.2-0.2-0.5,0-0.7l4.8-4.8c0.2-0.2,0.2-0.5,0-0.7l-4.8-4.8c-0.2-0.2-0.2-0.5,0-0.7l2.2-2.2c0.2-0.2,0.5-0.2,0.7,0l4.8,4.8  c0.2,0.2,0.5,0.2,0.7,0l4.8-4.8c0.2-0.2,0.5-0.2,0.7,0l2.2,2.2c0.2,0.2,0.2,0.5,0,0.7l-4.8,4.8C74.5,59.8,74.5,60.1,74.7,60.2z"/><text x="0" y="115" fill="#000000" font-size="5px" font-weight="bold" font-family="'Helvetica Neue', Helvetica, Arial-Unicode, Arial, Sans-serif">Created by Nubaia Karim Barsha</text><text x="0" y="120" fill="#000000" font-size="5px" font-weight="bold" font-family="'Helvetica Neue', Helvetica, Arial-Unicode, Arial, Sans-serif">from the Noun Project</text></svg>