<svg xmlns="http://www.w3.org/2000/svg" xmlns:xlink="http://www.w3.org/1999/xlink" version="1.1" x="0px" y="0px" viewBox="0 0 128 160" style="enable-background:new 0 0 128 128;" xml:space="preserve"><g><path d="M65.6,73.7c0.1,0,0.3,0.1,0.4,0.1c0.6,0,1.1-0.4,1.2-0.9l5.5-17.2c0.2-0.7-0.2-1.4-0.8-1.6   c-0.7-0.2-1.4,0.2-1.6,0.8l-5.5,17.2C64.5,72.8,64.9,73.5,65.6,73.7z"/><path d="M59.6,71.5c0.3,0,0.7-0.1,0.9-0.4c0.5-0.5,0.5-1.3,0-1.8l-5.4-5.4l5.4-5.4c0.5-0.5,0.5-1.3,0-1.8   c-0.5-0.5-1.3-0.5-1.8,0l-7.2,7.2l7.2,7.2C58.9,71.4,59.3,71.5,59.6,71.5z"/><path d="M76.9,71.1c0.3,0.3,0.6,0.4,0.9,0.4s0.7-0.1,0.9-0.4l7.2-7.2l-7.2-7.2c-0.5-0.5-1.3-0.5-1.8,0   c-0.5,0.5-0.5,1.3,0,1.8l5.4,5.4l-5.4,5.4C76.4,69.8,76.4,70.6,76.9,71.1z"/><path d="M64,7C32.5,7,7,32.5,7,64s25.5,57,57,57s57-25.5,57-57S95.5,7,64,7z M87.1,87.7c0,2.8-2.2,5-5,5H36.5   c-2.8,0-5-2.2-5-5V56.5c0-2.8,2.2-5,5-5h2.9v30.2c0,2.1,1.7,3.8,3.8,3.7L87.1,85V87.7z M96.5,81c0,1.5-1.2,2.8-2.8,2.8H43.7   c-1.5,0-2.8-1.2-2.8-2.8V47.5h55.6V81z M96.5,44.9H40.9v-6.8c0-1.5,1.2-2.8,2.8-2.8h50.1c1.5,0,2.8,1.2,2.8,2.8V44.9z"/><path d="M60.7,39.9h-3.8c-0.7,0-1.3,0.6-1.3,1.3s0.6,1.3,1.3,1.3h3.8c0.7,0,1.3-0.6,1.3-1.3S61.4,39.9,60.7,39.9z   "/><path d="M52,39.9h-3.8c-0.7,0-1.3,0.6-1.3,1.3s0.6,1.3,1.3,1.3H52c0.7,0,1.3-0.6,1.3-1.3S52.7,39.9,52,39.9z"/></g><text x="0" y="143" fill="#000000" font-size="5px" font-weight="bold" font-family="'Helvetica Neue', Helvetica, Arial-Unicode, Arial, Sans-serif">Created by Shocho</text><text x="0" y="148" fill="#000000" font-size="5px" font-weight="bold" font-family="'Helvetica Neue', Helvetica, Arial-Unicode, Arial, Sans-serif">from the Noun Project</text></svg>